<svg xmlns="http://www.w3.org/2000/svg" width="1024" height="1024" viewBox="0 0 1024 1024">
<defs><linearGradient id="w" x1="0" y1="0" x2="1" y2="1"><stop offset="0" stop-color="#F7C9A8"/><stop offset="0.5" stop-color="#B9D7F2"/><stop offset="1" stop-color="#D7C3F0"/></linearGradient><clipPath id="mask"><path d="M924.0,512.0 L924.0,574.7 L923.9,598.5 L923.7,616.5 L923.5,631.4 L923.3,644.4 L922.9,656.1 L922.6,666.8 L922.1,676.6 L921.6,685.8 L921.1,694.5 L920.5,702.7 L919.8,710.4 L919.1,717.8 L918.3,724.9 L917.4,731.7 L916.5,738.3 L915.5,744.5 L914.5,750.6 L913.4,756.5 L912.3,762.1 L911.0,767.6 L909.8,773.0 L908.4,778.1 L907.0,783.1 L905.6,788.0 L904.1,792.7 L902.5,797.4 L900.8,801.8 L899.1,806.2 L897.3,810.5 L895.5,814.6 L893.6,818.6 L891.6,822.6 L889.6,826.4 L887.5,830.1 L885.3,833.8 L883.1,837.3 L880.8,840.8 L878.4,844.2 L876.0,847.4 L873.5,850.7 L870.9,853.8 L868.2,856.8 L865.5,859.8 L862.7,862.7 L859.8,865.5 L856.8,868.2 L853.8,870.9 L850.7,873.5 L847.4,876.0 L844.2,878.4 L840.8,880.8 L837.3,883.1 L833.8,885.3 L830.1,887.5 L826.4,889.6 L822.6,891.6 L818.6,893.6 L814.6,895.5 L810.5,897.3 L806.2,899.1 L801.8,900.8 L797.4,902.5 L792.7,904.1 L788.0,905.6 L783.1,907.0 L778.1,908.4 L773.0,909.8 L767.6,911.0 L762.1,912.3 L756.5,913.4 L750.6,914.5 L744.5,915.5 L738.3,916.5 L731.7,917.4 L724.9,918.3 L717.8,919.1 L710.4,919.8 L702.7,920.5 L694.5,921.1 L685.8,921.6 L676.6,922.1 L666.8,922.6 L656.1,922.9 L644.4,923.3 L631.4,923.5 L616.5,923.7 L598.5,923.9 L574.7,924.0 L512.0,924.0 L449.3,924.0 L425.5,923.9 L407.5,923.7 L392.6,923.5 L379.6,923.3 L367.9,922.9 L357.2,922.6 L347.4,922.1 L338.2,921.6 L329.5,921.1 L321.3,920.5 L313.6,919.8 L306.2,919.1 L299.1,918.3 L292.3,917.4 L285.7,916.5 L279.5,915.5 L273.4,914.5 L267.5,913.4 L261.9,912.3 L256.4,911.0 L251.0,909.8 L245.9,908.4 L240.9,907.0 L236.0,905.6 L231.3,904.1 L226.6,902.5 L222.2,900.8 L217.8,899.1 L213.5,897.3 L209.4,895.5 L205.4,893.6 L201.4,891.6 L197.6,889.6 L193.9,887.5 L190.2,885.3 L186.7,883.1 L183.2,880.8 L179.8,878.4 L176.6,876.0 L173.3,873.5 L170.2,870.9 L167.2,868.2 L164.2,865.5 L161.3,862.7 L158.5,859.8 L155.8,856.8 L153.1,853.8 L150.5,850.7 L148.0,847.4 L145.6,844.2 L143.2,840.8 L140.9,837.3 L138.7,833.8 L136.5,830.1 L134.4,826.4 L132.4,822.6 L130.4,818.6 L128.5,814.6 L126.7,810.5 L124.9,806.2 L123.2,801.8 L121.5,797.4 L119.9,792.7 L118.4,788.0 L117.0,783.1 L115.6,778.1 L114.2,773.0 L113.0,767.6 L111.7,762.1 L110.6,756.5 L109.5,750.6 L108.5,744.5 L107.5,738.3 L106.6,731.7 L105.7,724.9 L104.9,717.8 L104.2,710.4 L103.5,702.7 L102.9,694.5 L102.4,685.8 L101.9,676.6 L101.4,666.8 L101.1,656.1 L100.7,644.4 L100.5,631.4 L100.3,616.5 L100.1,598.5 L100.0,574.7 L100.0,512.0 L100.0,449.3 L100.1,425.5 L100.3,407.5 L100.5,392.6 L100.7,379.6 L101.1,367.9 L101.4,357.2 L101.9,347.4 L102.4,338.2 L102.9,329.5 L103.5,321.3 L104.2,313.6 L104.9,306.2 L105.7,299.1 L106.6,292.3 L107.5,285.7 L108.5,279.5 L109.5,273.4 L110.6,267.5 L111.7,261.9 L113.0,256.4 L114.2,251.0 L115.6,245.9 L117.0,240.9 L118.4,236.0 L119.9,231.3 L121.5,226.6 L123.2,222.2 L124.9,217.8 L126.7,213.5 L128.5,209.4 L130.4,205.4 L132.4,201.4 L134.4,197.6 L136.5,193.9 L138.7,190.2 L140.9,186.7 L143.2,183.2 L145.6,179.8 L148.0,176.6 L150.5,173.3 L153.1,170.2 L155.8,167.2 L158.5,164.2 L161.3,161.3 L164.2,158.5 L167.2,155.8 L170.2,153.1 L173.3,150.5 L176.6,148.0 L179.8,145.6 L183.2,143.2 L186.7,140.9 L190.2,138.7 L193.9,136.5 L197.6,134.4 L201.4,132.4 L205.4,130.4 L209.4,128.5 L213.5,126.7 L217.8,124.9 L222.2,123.2 L226.6,121.5 L231.3,119.9 L236.0,118.4 L240.9,117.0 L245.9,115.6 L251.0,114.2 L256.4,113.0 L261.9,111.7 L267.5,110.6 L273.4,109.5 L279.5,108.5 L285.7,107.5 L292.3,106.6 L299.1,105.7 L306.2,104.9 L313.6,104.2 L321.3,103.5 L329.5,102.9 L338.2,102.4 L347.4,101.9 L357.2,101.4 L367.9,101.1 L379.6,100.7 L392.6,100.5 L407.5,100.3 L425.5,100.1 L449.3,100.0 L512.0,100.0 L574.7,100.0 L598.5,100.1 L616.5,100.3 L631.4,100.5 L644.4,100.7 L656.1,101.1 L666.8,101.4 L676.6,101.9 L685.8,102.4 L694.5,102.9 L702.7,103.5 L710.4,104.2 L717.8,104.9 L724.9,105.7 L731.7,106.6 L738.3,107.5 L744.5,108.5 L750.6,109.5 L756.5,110.6 L762.1,111.7 L767.6,113.0 L773.0,114.2 L778.1,115.6 L783.1,117.0 L788.0,118.4 L792.7,119.9 L797.4,121.5 L801.8,123.2 L806.2,124.9 L810.5,126.7 L814.6,128.5 L818.6,130.4 L822.6,132.4 L826.4,134.4 L830.1,136.5 L833.8,138.7 L837.3,140.9 L840.8,143.2 L844.2,145.6 L847.4,148.0 L850.7,150.5 L853.8,153.1 L856.8,155.8 L859.8,158.5 L862.7,161.3 L865.5,164.2 L868.2,167.2 L870.9,170.2 L873.5,173.3 L876.0,176.6 L878.4,179.8 L880.8,183.2 L883.1,186.7 L885.3,190.2 L887.5,193.9 L889.6,197.6 L891.6,201.4 L893.6,205.4 L895.5,209.4 L897.3,213.5 L899.1,217.8 L900.8,222.2 L902.5,226.6 L904.1,231.3 L905.6,236.0 L907.0,240.9 L908.4,245.9 L909.8,251.0 L911.0,256.4 L912.3,261.9 L913.4,267.5 L914.5,273.4 L915.5,279.5 L916.5,285.7 L917.4,292.3 L918.3,299.1 L919.1,306.2 L919.8,313.6 L920.5,321.3 L921.1,329.5 L921.6,338.2 L922.1,347.4 L922.6,357.2 L922.9,367.9 L923.3,379.6 L923.5,392.6 L923.7,407.5 L923.9,425.5 L924.0,449.3 Z"/></clipPath>
<filter id="blur"><feGaussianBlur stdDeviation="30"/></filter>
<linearGradient id="rim" x1="0" y1="0" x2="0" y2="1"><stop offset="0" stop-color="#fff" stop-opacity="0.85"/><stop offset="0.45" stop-color="#fff" stop-opacity="0.08"/><stop offset="1" stop-color="#fff" stop-opacity="0.4"/></linearGradient>
<radialGradient id="spec" cx="0.32" cy="0.12" r="0.75"><stop offset="0" stop-color="#fff" stop-opacity="0.30"/><stop offset="0.6" stop-color="#fff" stop-opacity="0"/></radialGradient>
<filter id="shadow" x="-20%" y="-20%" width="140%" height="150%"><feGaussianBlur in="SourceAlpha" stdDeviation="16"/><feOffset dy="18"/><feComponentTransfer><feFuncA type="linear" slope="0.25"/></feComponentTransfer><feMerge><feMergeNode/><feMergeNode in="SourceGraphic"/></feMerge></filter>
</defs>
<g clip-path="url(#mask)"><rect width="1024" height="1024" fill="url(#w)" filter="url(#blur)"/><rect width="1024" height="1024" fill="#fff" opacity="0.45"/><rect width="1024" height="1024" fill="url(#spec)"/>
<g filter="url(#shadow)"><path d="M500,372 C430,330 340,322 276,338 L276,690 C340,676 430,684 500,724 Z" fill="#FFFFFF" stroke="#FFFFFF" stroke-width="22" stroke-linejoin="round" opacity="0.92"/><path d="M524,372 C594,330 684,322 748,338 L748,690 C684,676 594,684 524,724 Z" fill="#F2F2F2" stroke="#F2F2F2" stroke-width="22" stroke-linejoin="round" opacity="0.92"/><path d="M325,410 L325,640" fill="none" stroke="#000000" stroke-width="16" stroke-linecap="round" opacity="0.3"/><path d="M699,410 L699,610" fill="none" stroke="#000000" stroke-width="16" stroke-linecap="round" opacity="0.3"/><path d="M370,410 L370,600" fill="none" stroke="#000000" stroke-width="16" stroke-linecap="round" opacity="0.3"/><path d="M654,410 L654,640" fill="none" stroke="#000000" stroke-width="16" stroke-linecap="round" opacity="0.3"/><path d="M415,410 L415,650" fill="none" stroke="#000000" stroke-width="16" stroke-linecap="round" opacity="0.3"/><path d="M609,410 L609,620" fill="none" stroke="#000000" stroke-width="16" stroke-linecap="round" opacity="0.3"/><path d="M460,410 L460,560" fill="none" stroke="#000000" stroke-width="16" stroke-linecap="round" opacity="0.3"/><path d="M564,410 L564,600" fill="none" stroke="#000000" stroke-width="16" stroke-linecap="round" opacity="0.3"/></g></g>
<path d="M924.0,512.0 L924.0,574.7 L923.9,598.5 L923.7,616.5 L923.5,631.4 L923.3,644.4 L922.9,656.1 L922.6,666.8 L922.1,676.6 L921.6,685.8 L921.1,694.5 L920.5,702.7 L919.8,710.4 L919.1,717.8 L918.3,724.9 L917.4,731.7 L916.5,738.3 L915.5,744.5 L914.5,750.6 L913.4,756.5 L912.3,762.1 L911.0,767.6 L909.8,773.0 L908.4,778.1 L907.0,783.1 L905.6,788.0 L904.1,792.7 L902.5,797.4 L900.8,801.8 L899.1,806.2 L897.3,810.5 L895.5,814.6 L893.6,818.6 L891.6,822.6 L889.6,826.4 L887.5,830.1 L885.3,833.8 L883.1,837.3 L880.8,840.8 L878.4,844.2 L876.0,847.4 L873.5,850.7 L870.9,853.8 L868.2,856.8 L865.5,859.8 L862.7,862.7 L859.8,865.5 L856.8,868.2 L853.8,870.9 L850.7,873.5 L847.4,876.0 L844.2,878.4 L840.8,880.8 L837.3,883.1 L833.8,885.3 L830.1,887.5 L826.4,889.6 L822.6,891.6 L818.6,893.6 L814.6,895.5 L810.5,897.3 L806.2,899.1 L801.8,900.8 L797.4,902.5 L792.7,904.1 L788.0,905.6 L783.1,907.0 L778.1,908.4 L773.0,909.8 L767.6,911.0 L762.1,912.3 L756.5,913.4 L750.6,914.5 L744.5,915.5 L738.3,916.5 L731.7,917.4 L724.9,918.3 L717.8,919.1 L710.4,919.8 L702.7,920.5 L694.5,921.1 L685.8,921.6 L676.6,922.1 L666.8,922.6 L656.1,922.9 L644.4,923.3 L631.4,923.5 L616.5,923.7 L598.5,923.9 L574.7,924.0 L512.0,924.0 L449.3,924.0 L425.5,923.9 L407.5,923.7 L392.6,923.5 L379.6,923.3 L367.9,922.9 L357.2,922.6 L347.4,922.1 L338.2,921.6 L329.5,921.1 L321.3,920.5 L313.6,919.8 L306.2,919.1 L299.1,918.3 L292.3,917.4 L285.7,916.5 L279.5,915.5 L273.4,914.5 L267.5,913.4 L261.9,912.3 L256.4,911.0 L251.0,909.8 L245.9,908.4 L240.9,907.0 L236.0,905.6 L231.3,904.1 L226.6,902.5 L222.2,900.8 L217.8,899.1 L213.5,897.3 L209.4,895.5 L205.4,893.6 L201.4,891.6 L197.6,889.6 L193.9,887.5 L190.2,885.3 L186.7,883.1 L183.2,880.8 L179.8,878.4 L176.6,876.0 L173.3,873.5 L170.2,870.9 L167.2,868.2 L164.2,865.5 L161.3,862.7 L158.5,859.8 L155.8,856.8 L153.1,853.8 L150.5,850.7 L148.0,847.4 L145.6,844.2 L143.2,840.8 L140.9,837.3 L138.7,833.8 L136.5,830.1 L134.4,826.4 L132.4,822.6 L130.4,818.6 L128.5,814.6 L126.7,810.5 L124.9,806.2 L123.2,801.8 L121.5,797.4 L119.9,792.7 L118.4,788.0 L117.0,783.1 L115.6,778.1 L114.2,773.0 L113.0,767.6 L111.7,762.1 L110.6,756.5 L109.5,750.6 L108.5,744.5 L107.5,738.3 L106.6,731.7 L105.7,724.9 L104.9,717.8 L104.2,710.4 L103.5,702.7 L102.9,694.5 L102.4,685.8 L101.9,676.6 L101.4,666.8 L101.1,656.1 L100.7,644.4 L100.5,631.4 L100.3,616.5 L100.1,598.5 L100.0,574.7 L100.0,512.0 L100.0,449.3 L100.1,425.5 L100.3,407.5 L100.5,392.6 L100.7,379.6 L101.1,367.9 L101.4,357.2 L101.9,347.4 L102.4,338.2 L102.9,329.5 L103.5,321.3 L104.2,313.6 L104.9,306.2 L105.7,299.1 L106.6,292.3 L107.5,285.7 L108.5,279.5 L109.5,273.4 L110.6,267.5 L111.7,261.9 L113.0,256.4 L114.2,251.0 L115.6,245.9 L117.0,240.9 L118.4,236.0 L119.9,231.3 L121.5,226.6 L123.2,222.2 L124.9,217.8 L126.7,213.5 L128.5,209.4 L130.4,205.4 L132.4,201.4 L134.4,197.6 L136.5,193.9 L138.7,190.2 L140.9,186.7 L143.2,183.2 L145.6,179.8 L148.0,176.6 L150.5,173.3 L153.1,170.2 L155.8,167.2 L158.5,164.2 L161.3,161.3 L164.2,158.5 L167.2,155.8 L170.2,153.1 L173.3,150.5 L176.6,148.0 L179.8,145.6 L183.2,143.2 L186.7,140.9 L190.2,138.7 L193.9,136.5 L197.6,134.4 L201.4,132.4 L205.4,130.4 L209.4,128.5 L213.5,126.7 L217.8,124.9 L222.2,123.2 L226.6,121.5 L231.3,119.9 L236.0,118.4 L240.9,117.0 L245.9,115.6 L251.0,114.2 L256.4,113.0 L261.9,111.7 L267.5,110.6 L273.4,109.5 L279.5,108.5 L285.7,107.5 L292.3,106.6 L299.1,105.7 L306.2,104.9 L313.6,104.2 L321.3,103.5 L329.5,102.9 L338.2,102.4 L347.4,101.9 L357.2,101.4 L367.9,101.1 L379.6,100.7 L392.6,100.5 L407.5,100.3 L425.5,100.1 L449.3,100.0 L512.0,100.0 L574.7,100.0 L598.5,100.1 L616.5,100.3 L631.4,100.5 L644.4,100.7 L656.1,101.1 L666.8,101.4 L676.6,101.9 L685.8,102.4 L694.5,102.9 L702.7,103.5 L710.4,104.2 L717.8,104.9 L724.9,105.7 L731.7,106.6 L738.3,107.5 L744.5,108.5 L750.6,109.5 L756.5,110.6 L762.1,111.7 L767.6,113.0 L773.0,114.2 L778.1,115.6 L783.1,117.0 L788.0,118.4 L792.7,119.9 L797.4,121.5 L801.8,123.2 L806.2,124.9 L810.5,126.7 L814.6,128.5 L818.6,130.4 L822.6,132.4 L826.4,134.4 L830.1,136.5 L833.8,138.7 L837.3,140.9 L840.8,143.2 L844.2,145.6 L847.4,148.0 L850.7,150.5 L853.8,153.1 L856.8,155.8 L859.8,158.5 L862.7,161.3 L865.5,164.2 L868.2,167.2 L870.9,170.2 L873.5,173.3 L876.0,176.6 L878.4,179.8 L880.8,183.2 L883.1,186.7 L885.3,190.2 L887.5,193.9 L889.6,197.6 L891.6,201.4 L893.6,205.4 L895.5,209.4 L897.3,213.5 L899.1,217.8 L900.8,222.2 L902.5,226.6 L904.1,231.3 L905.6,236.0 L907.0,240.9 L908.4,245.9 L909.8,251.0 L911.0,256.4 L912.3,261.9 L913.4,267.5 L914.5,273.4 L915.5,279.5 L916.5,285.7 L917.4,292.3 L918.3,299.1 L919.1,306.2 L919.8,313.6 L920.5,321.3 L921.1,329.5 L921.6,338.2 L922.1,347.4 L922.6,357.2 L922.9,367.9 L923.3,379.6 L923.5,392.6 L923.7,407.5 L923.9,425.5 L924.0,449.3 Z" fill="none" stroke="url(#rim)" stroke-width="6"/>
</svg>
